:SAMPLES-PER-SECOND 30
:FULLY-SPECIFIED
:DEGREES
1237
root  -37.0187 39.708 -13.7451 -94.4943 -86.0642 88.1132
RightUpLeg  -17.3087 -2.70337 -6.4023
RightLeg  18.4899 3.61735 0.923381
RightFoot  -0.707381 -0.646369 6.8777
RightToes  -8.14909e-010 0 -3.6325e-017
Spine  7.48879 2.25357 -1.64735
Spine1  6.08988 1.8391 0.971555
HEad  -7.41933 44.8199 0.84758
LeftShoulder1  -0.228793 4.22012 -25.6707
LeftArm  -28.1267 -5.45909 -39.1267
LeftForeArm  50.5668 -46.6813 -8.33559
LeftHand  0.00222481 7.60416 2.12687
RightShoulder  -0.580899 -5.16151 28.2774
RightArm  11.2091 -14.6785 36.3131
RightForeArm  15.1171 12.2236 4.61946
RightHand  0.0823201 2.89119 0.932053
LeftUpLeg  3.30068 5.55514 -5.22155
LeftLeg  14.6815 1.2091 0.0804411
LeftFoot  -11.8979 0.103042 6.43751
LeftToes  1.648e-009 -9.21574e-011 2.55256e-011
1238
root  -38.2184 39.6796 -13.8067 -89.6827 -85.4848 83.827
RightUpLeg  -16.7274 -5.36611 -6.09058
RightLeg  6.57102 7.03679 0.163244
RightFoot  -1.31181 -0.601777 6.75625
RightToes  -8.14909e-010 0 -3.6325e-017
Spine  6.65763 2.22636 -1.66608
Spine1  6.54652 1.88369 1.10455
HEad  -7.86903 45.4352 0.571335
LeftShoulder1  -0.150222 3.97725 -25.4862
LeftArm  -27.5806 -5.52104 -39.4195
LeftForeArm  50.7183 -46.5826 -8.29182
LeftHand  -0.00210675 7.79242 1.82829
RightShoulder  -0.616103 -5.24554 28.6367
RightArm  10.7913 -14.5845 36.4191
RightForeArm  15.7153 11.4766 4.62568
RightHand  0.0752937 2.06385 0.993701
LeftUpLeg  5.51956 5.60193 -5.42293
LeftLeg  13.1694 0.725097 -0.261907
LeftFoot  -12.9425 0.162649 6.05958
LeftToes  1.648e-009 -9.21574e-011 2.55256e-011
1239
root  -39.447 39.5596 -13.904 -84.4024 -85.1758 78.806
RightUpLeg  -16.2244 -7.38702 -5.64427
RightLeg  -1.74562 8.46236 -0.464788
RightFoot  -2.55762 -0.63615 8.06514
RightToes  -8.14909e-010 0 -3.6325e-017
Spine  5.98947 2.23621 -1.33225
Spine1  7.18948 1.90436 1.31919
HEad  -8.10878 45.6823 0.186127
LeftShoulder1  -0.102238 3.82483 -25.5968
LeftArm  -26.4674 -5.27922 -39.5054
LeftForeArm  51.0487 -46.3994 -8.20223
LeftHand  -0.00459649 8.15227 1.56482
RightShoulder  -0.596963 -5.20142 28.4117
RightArm  9.68267 -14.6514 37.2504
RightForeArm  16.5087 10.8677 4.41684
RightHand  0.107638 2.63266 1.35462
LeftUpLeg  7.54716 5.92562 -5.15214
LeftLeg  12.7818 -0.322145 -0.535001
LeftFoot  -14.5847 0.246455 5.60454
LeftToes  1.648e-009 -9.21574e-011 2.55256e-011
1240
root  -40.7492 39.3072 -14.0239 -84.473 -85.0757 78.6094
RightUpLeg  -16.4748 -7.35273 -5.42836
RightLeg  -2.47847 5.43048 -0.0611277
RightFoot  -3.86176 -0.567751 8.31319
RightToes  -8.14909e-010 0 -3.6325e-017
Spine  6.41297 2.45198 -0.595103
Spine1  6.99892 2.19741 1.2054
HEad  -7.9948 46.0098 -0.296112
LeftShoulder1  -0.100007 3.81294 -26.1597
LeftArm  -26.0905 -5.60275 -39.8154
LeftForeArm  52.1108 -44.2786 -7.48812
LeftHand  -0.000966028 7.94356 1.8613
RightShoulder  -0.537017 -5.04877 27.944
RightArm  9.02249 -14.6768 38.0998
RightForeArm  16.7063 10.4937 4.30911
RightHand  0.11842 2.53305 1.52736
LeftUpLeg  9.61468 6.27261 -4.76646
LeftLeg  13.7976 -0.818027 -0.405798
LeftFoot  -17.0369 0.349211 4.97215
LeftToes  1.648e-009 -9.21574e-011 2.55256e-011
1241
root  -42.0929 39.0194 -14.1831 -78.2651 -85.2362 72.1986
RightUpLeg  -17.7087 -7.25301 -4.73834
RightLeg  3.46434 0.979664 0.435372
RightFoot  -2.77161 -0.489988 6.16547
RightToes  -8.14909e-010 0 -3.6325e-017
Spine  6.30591 2.38392 0.490234
Spine1  7.48792 2.14195 1.29379
HEad  -8.01491 46.4149 -0.995422
LeftShoulder1  -0.106018 3.82767 -26.5467
LeftArm  -27.9102 -7.19064 -40.9583
LeftForeArm  56.0312 -39.4997 -5.839
LeftHand  -0.0035552 7.1788 2.26735
RightShoulder  -0.470785 -4.86582 27.6783
RightArm  8.81965 -14.2409 38.8673
RightForeArm  17.1196 10.6117 4.28391
RightHand  0.161475 2.72959 2.1005
LeftUpLeg  11.4265 5.5243 -4.33868
LeftLeg  15.2294 -0.666094 0.199121
LeftFoot  -19.5884 0.401119 3.93995
LeftToes  1.648e-009 -9.21574e-011 2.55256e-011
